<!-- Generated by IcoMoon.io -->
<svg version="1.1" xmlns="http://www.w3.org/2000/svg" width="32" height="32" viewBox="0 0 32 32">
<title>apply</title>
<path fill="#eee" d="M1.989 29.924v-2.019c0-0.791 0.594-1.039 0.831-1.148l8.74-4.125c0.627-0.288 1.058-0.881 1.143-1.564 0.085-0.685-0.191-1.363-0.729-1.795-2.067-1.66-3.030-5.308-3.030-7.252v-4.974c0-2.079 3.62-4.972 6.97-4.972 3.38 0 6.964 2.846 6.964 4.972v4.973c0 1.914-0.796 5.576-2.931 7.258-0.544 0.428-0.827 1.109-0.745 1.798 0.082 0.689 0.517 1.285 1.146 1.574l5.045 2.402 1.187-1.681-5.401-2.529c2.757-2.17 3.689-6.433 3.689-8.821v-4.973c0-3.294-4.559-6.962-8.954-6.962s-8.96 3.668-8.96 6.962v4.973c0 2.172 0.992 6.57 3.775 8.804l-8.74 4.125c0 0-1.989 0.887-1.989 1.989v2.987c0 1.1 0.89 1.99 1.989 1.99h19.894l-1.617-1.99h-18.277zM31.491 22.577c-0.433-0.339-1.058-0.262-1.397 0.171l-4.256 6.49-2.644-2.646c-0.388-0.388-1.018-0.388-1.407 0s-0.388 1.018 0 1.407l3.519 3.519c0.388 0.388 1.018 0.388 1.407 0 0.047-0.047 0.070-0.106 0.106-0.161 0.002-0.002 0.005-0.004 0.006-0.006l4.836-7.376c0.339-0.433 0.262-1.058-0.171-1.397z"></path>
</svg>
