<!-- Generated by IcoMoon.io -->
<svg version="1.1" xmlns="http://www.w3.org/2000/svg" width="32" height="32" viewBox="0 0 32 32">
<title>cc2</title>
<path fill="#eee" d="M1.975 29.083c0.010 0 0.022 0 0.034-0.001 0.491-0.016 0.801-0.397 0.842-0.886 0.034-0.36 1-9.071 14.594-9.061l0.030 5.569c0 0.375 0.216 0.718 0.556 0.878 0.337 0.161 0.741 0.112 1.030-0.128l12.584-10.426c0.226-0.185 0.355-0.461 0.354-0.751s-0.132-0.566-0.358-0.75l-12.582-10.329c-0.289-0.237-0.691-0.282-1.030-0.124-0.338 0.161-0.554 0.502-0.554 0.877l-0.030 5.448c-5.64 0.179-10.007 1.993-12.838 5.306-4.608 5.392-3.58 13.227-3.531 13.553 0.071 0.476 0.42 0.825 0.898 0.825zM18.447 17.179c-0.001 0-0.001 0-0.001 0-9.713 0.006-13.423 3.285-15.543 6.182 0.309-2.32 1.215-5.116 3.185-7.4 2.618-3.036 6.836-4.635 12.358-4.635 0.537 0 0.97-0.434 0.97-0.97v-4.362l10.082 8.289-10.082 8.368v-4.501c0-0.258-0.102-0.506-0.286-0.687-0.18-0.18-0.427-0.283-0.683-0.283z"></path>
</svg>
