<!-- Generated by IcoMoon.io -->
<svg version="1.1" xmlns="http://www.w3.org/2000/svg" width="32" height="32" viewBox="0 0 32 32">
<title>drafts</title>
<path fill="#eee" d="M31.974 16.372c0.024-0.141 0.026-0.287-0.015-0.434l-3.668-12.706c-0.12-0.433-0.514-0.733-0.962-0.733h-22.951c-0.452 0-0.848 0.304-0.965 0.742l-3.352 12.059c-0.060 0.229-0.023 0.456 0.067 0.657-0.056 0.186-0.096 0.378-0.096 0.582v10.964c0 1.103 0.894 1.998 1.998 1.998h27.966c1.103 0 1.998-0.894 1.998-1.998v-10.964c-0.001-0.055-0.013-0.11-0.018-0.167zM5.146 4.498h21.423l2.906 10.046h-9.311c-0.045 2.398-1.745 4.047-4.153 4.047s-4.076-1.651-4.121-4.048h-9.544l2.801-10.044zM29.993 27.506h-27.965v-10.964h8.213c0.871 2.51 2.99 4.048 5.771 4.048s4.93-1.538 5.801-4.048h8.181v10.964z"></path>
</svg>
