<!-- Generated by IcoMoon.io -->
<svg version="1.1" xmlns="http://www.w3.org/2000/svg" width="32" height="32" viewBox="0 0 32 32">
<title>examination_and_approval</title>
<path fill="#eee" d="M30.086 1.622c-1.084-1.039-2.281-1.566-3.558-1.566-1.997 0-3.453 1.29-3.851 1.685-0.561 0.556-19.69 19.692-19.69 19.692-0.125 0.126-0.216 0.283-0.263 0.455-0.432 1.594-2.593 8.668-2.614 8.738-0.111 0.363-0.012 0.757 0.254 1.024 0.192 0.191 0.449 0.293 0.71 0.293 0.103 0 0.207-0.015 0.309-0.048 0.073-0.024 7.374-2.384 8.577-2.742 0.158-0.047 0.303-0.133 0.421-0.25 0.76-0.75 18.6-18.393 19.785-19.616 1.225-1.263 1.833-2.576 1.809-3.906-0.024-1.315-0.66-2.579-1.891-3.759zM22.361 4.925c0.503 0.12 1.697 0.518 2.925 1.756 1.239 1.25 1.57 2.675 1.63 2.992-3.914 3.894-12.928 12.812-16.475 16.321-0.327-0.767-0.848-1.683-1.705-2.547-1.041-1.050-2.1-1.641-2.918-1.974 3.512-3.515 12.688-12.695 16.542-16.548zM4.465 23.152c0.545 0.145 1.681 0.564 2.841 1.734 0.893 0.901 1.312 1.892 1.501 2.496-1.376 0.442-4.404 1.487-6.336 2.11 0.571-1.881 1.534-4.801 1.994-6.34zM28.723 7.864c-0.040 0.042-0.108 0.11-0.188 0.192-0.315-0.81-0.866-1.851-1.821-2.814-0.98-0.988-1.968-1.561-2.764-1.905 0.070-0.070 0.124-0.123 0.144-0.144 0.113-0.112 1.147-1.1 2.435-1.1 0.742 0 1.469 0.338 2.165 1.005 0.825 0.79 1.25 1.571 1.264 2.319 0.013 0.765-0.402 1.588-1.235 2.447z"></path>
</svg>
