<!-- Generated by IcoMoon.io -->
<svg version="1.1" xmlns="http://www.w3.org/2000/svg" width="32" height="32" viewBox="0 0 32 32">
<title>sp_assignment_turned_in</title>
<path fill="#e85c72" d="M32 16c0 8.837-7.163 16-16 16s-16-7.163-16-16 7.163-16 16-16c8.833 0 16 7.163 16 16z"></path>
<path fill="#fff" d="M14.145 21.545l7.375-7.375-1.296-1.296-6.084 6.037-2.371-2.371-1.296 1.296 3.671 3.708zM16 8.645c-0.516 0-0.904 0.388-0.904 0.904s0.388 0.949 0.904 0.949c0.516 0 0.904-0.433 0.904-0.949 0-0.512-0.388-0.904-0.904-0.904zM22.425 8.645c0.992 0 1.855 0.863 1.855 1.855v12.855c0 0.992-0.863 1.855-1.855 1.855h-12.855c-0.992 0-1.855-0.863-1.855-1.855v-12.855c0-0.992 0.863-1.855 1.855-1.855h3.837c0.388-1.079 1.379-1.855 2.588-1.855s2.2 0.775 2.588 1.855h3.841z"></path>
</svg>
