<!-- Generated by IcoMoon.io -->
<svg version="1.1" xmlns="http://www.w3.org/2000/svg" width="32" height="32" viewBox="0 0 32 32">
<title>sp_account_balance_wallet</title>
<path fill="#00bbcf" d="M32 16c0 8.837-7.163 16-16 16s-16-7.163-16-16 7.163-16 16-16 16 7.163 16 16z"></path>
<path fill="#fff" d="M19.879 17.488c0.837 0 1.488-0.651 1.488-1.488s-0.655-1.488-1.488-1.488-1.488 0.651-1.488 1.488 0.649 1.488 1.488 1.488zM15.929 19.949v-7.9h9.896v7.9h-9.896zM24.851 21.945v0.975c0 1.067-0.929 1.996-1.996 1.996h-13.849c-1.116 0-1.996-0.929-1.996-1.996v-13.845c0-1.067 0.884-1.996 1.996-1.996h13.845c1.067 0 1.996 0.929 1.996 1.996v0.975h-8.916c-1.116 0-1.996 0.929-1.996 1.996v7.9c0 1.067 0.884 1.996 1.996 1.996h8.921z"></path>
</svg>
