<!-- Generated by IcoMoon.io -->
<svg version="1.1" xmlns="http://www.w3.org/2000/svg" width="32" height="32" viewBox="0 0 32 32">
<title>sp_assignment</title>
<path fill="#00bbcf" d="M32.049 15.879c0 8.837-7.163 16-16 16s-16-7.163-16-16 7.163-16 16-16 16 7.163 16 16z"></path>
<path fill="#fff" d="M20.663 13.916v-1.855h-9.229v1.855h9.229zM20.663 17.588v-1.812h-9.229v1.812h9.229zM17.904 21.296v-1.855h-6.471v1.855h6.471zM16.051 8.4c-0.521 0-0.904 0.388-0.904 0.904 0 0.521 0.388 0.945 0.904 0.945s0.904-0.433 0.904-0.945-0.388-0.904-0.904-0.904zM22.475 8.4c0.992 0 1.855 0.859 1.855 1.855v12.851c0 0.992-0.859 1.855-1.855 1.855h-12.855c-0.992 0-1.855-0.859-1.855-1.855v-12.849c0-0.992 0.859-1.855 1.855-1.855h3.837c0.388-1.075 1.379-1.855 2.588-1.855s2.2 0.775 2.588 1.855h3.841z"></path>
</svg>
