<!-- Generated by IcoMoon.io -->
<svg version="1.1" xmlns="http://www.w3.org/2000/svg" width="32" height="32" viewBox="0 0 32 32">
<title>sp_beach_access</title>
<path fill="#2196f3" d="M32 16c0 8.837-7.163 16-16 16s-16-7.163-16-16 7.163-16 16-16 16 7.163 16 16z"></path>
<path fill="#fff" d="M21.241 12.845c-3.021-3.021-7.208-4.016-10.996-2.763 2.879-0.329 6.592 1.163 9.596 4.163l-5.512 5.508c-3-3-4.492-6.712-4.163-9.596-1.251 3.788-0.255 7.975 2.763 10.996l-2.755 2.755c-3.792-3.792-3.796-9.975-0.004-13.771 0.004-0.049 0.008-0.049 0.059-0.059 3.796-3.788 9.979-3.788 13.771 0.004l-2.759 2.763zM17.088 18.4l1.4-1.4 6.188 6.233-1.4 1.355-6.188-6.188z"></path>
</svg>
