<!-- Generated by IcoMoon.io -->
<svg version="1.1" xmlns="http://www.w3.org/2000/svg" width="32" height="32" viewBox="0 0 32 32">
<title>sp_class</title>
<path fill="#01ca83" d="M32 16c0 8.837-7.163 16-16 16s-16-7.163-16-16 7.163-16 16-16 16 7.163 16 16z"></path>
<path fill="#fff" d="M10.088 8.1v7.9l2.451-1.479 2.496 1.479v-7.9h-4.945zM21.916 6.159c1.063 0 1.988 0.879 1.988 1.941v15.8c0 1.063-0.925 1.941-1.988 1.941h-11.829c-1.063 0-1.988-0.879-1.988-1.941v-15.8c0-1.063 0.925-1.941 1.988-1.941h11.829z"></path>
</svg>
