<!-- Generated by IcoMoon.io -->
<svg version="1.1" xmlns="http://www.w3.org/2000/svg" width="32" height="32" viewBox="0 0 32 32">
<title>sp_check</title>
<path fill="#01ca83" d="M32 16c0 8.837-7.163 16-16 16s-16-7.163-16-16 7.163-16 16-16 16 7.163 16 16z"></path>
<path fill="#fff" d="M8.912 10.696h14.175v1.784h-14.175v-1.784z"></path>
<path fill="#fff" d="M10.696 7.171h10.612v1.741h-10.612v-1.741z"></path>
<path fill="#fff" d="M23.088 14.216h-14.175c-0.955 0-1.741 0.829-1.741 1.784v7.088c0 0.955 0.788 1.741 1.741 1.741h14.175c0.955 0 1.741-0.788 1.741-1.741v-7.088c0-0.955-0.788-1.784-1.741-1.784zM14.655 22.584l-2.608-2.608 0.841-0.841 1.767 1.767 4.463-4.463 0.841 0.845-5.304 5.3z"></path>
</svg>
