<!-- Generated by IcoMoon.io -->
<svg version="1.1" xmlns="http://www.w3.org/2000/svg" width="32" height="32" viewBox="0 0 32 32">
<title>sp_compact2</title>
<path fill="#00bbcf" d="M32 16c0 8.837-7.163 16-16 16s-16-7.163-16-16 7.163-16 16-16 16 7.163 16 16z"></path>
<path fill="#fff" d="M16 6.992c-2.604 0-4.716 2.112-4.716 4.716 0 1.379 0.596 2.616 1.541 3.479 0.229 0.3 0.492 0.641 0.608 0.829 0.512 0.788 0.663 2.125-1.196 3.412h-3.896c-0.504 0-0.916 0.4-0.916 0.9v3.775c0 0.496 0.408 0.9 0.916 0.9h15.325c0.504 0 0.916-0.4 0.916-0.9v-3.771c0-0.496-0.408-0.9-0.916-0.9h-3.896c-1.859-1.288-1.708-2.621-1.196-3.412 0.121-0.184 0.379-0.529 0.608-0.829 0.945-0.863 1.541-2.1 1.541-3.479-0.008-2.608-2.121-4.721-4.725-4.721v0 0 0z"></path>
</svg>
