<!-- Generated by IcoMoon.io -->
<svg version="1.1" xmlns="http://www.w3.org/2000/svg" width="32" height="32" viewBox="0 0 32 32">
<title>sp_date_range</title>
<path fill="#e85c72" d="M32 16.008c0 8.837-7.163 16-16 16s-16-7.163-16-16 7.163-16 16-16c8.833 0 16 7.163 16 16z"></path>
<path fill="#fff" d="M22.537 23.512v-10.312h-13.075v10.312h13.075zM22.537 8.504c1.008 0 1.888 0.879 1.888 1.888v13.121c0 1.008-0.879 1.841-1.888 1.841h-13.075c-1.055 0-1.888-0.833-1.888-1.841v-13.121c0-1.008 0.833-1.888 1.888-1.888h0.921v-1.841h1.888v1.841h7.459v-1.841h1.888v1.841h0.921zM20.696 15.088v1.841h-1.888v-1.841h1.888zM16.921 15.088v1.841h-1.841v-1.841h1.841zM13.192 15.088v1.841h-1.888v-1.841h1.888z"></path>
</svg>
